Coordinates
version=1
nRows=32
nColumns=12
inDegrees=yes

Units are S.I. units (second, meters, Newtons, ...)
Angles are in degrees

endheader
time	SC_y	SC_z	SC_x	AC_y	AC_z	AC_x	GH_y	GH_z	GH_yy	EL_x	PS_y
       0.0              -42.23          9.927          64.14          35.35         -11.65          7.311         -135.1          41.17          172.0          136.9          131.7
   0.04237              -42.22          9.932          64.13          35.35         -11.65          7.309         -135.1          41.17          171.9          136.9          131.7
   0.08473              -42.22          9.936          64.12          35.36         -11.64          7.307         -135.1          41.17          171.9          136.9          131.7
    0.1271              -42.22          9.941          64.11          35.36         -11.64          7.305         -135.1          41.17          171.8          136.9          131.7
    0.1695              -42.21          9.946           64.1          35.37         -11.64          7.302         -135.1          41.16          171.8          136.9          131.7
    0.2118              -42.21          9.952          64.09          35.37         -11.64            7.3         -135.1          41.16          171.8          136.8          131.7
    0.2542               -42.2          9.958          64.08          35.37         -11.64          7.297         -135.1          41.16          171.7          136.8          131.7
    0.2966               -42.2          9.964          64.07          35.38         -11.64          7.295         -135.1          41.16          171.7          136.8          131.7
    0.3389              -42.19          9.971          64.05          35.39         -11.63          7.292         -135.1          41.16          171.6          136.8          131.7
    0.3813              -42.19          9.978          64.04          35.39         -11.63          7.289         -135.1          41.16          171.5          136.8          131.7
    0.4237              -42.18          9.986          64.02           35.4         -11.63          7.285         -135.1          41.15          171.5          136.8          131.7
     0.466              -42.18          9.994          64.01           35.4         -11.63          7.281         -135.1          41.15          171.4          136.8          131.7
    0.5084              -42.17           10.0          63.99          35.41         -11.62          7.278         -135.1          41.15          171.3          136.7          131.7
    0.5508              -42.16          10.01          63.97          35.42         -11.62          7.273         -135.1          41.15          171.3          136.7          131.7
    0.5931              -42.15          10.02          63.95          35.43         -11.62          7.269         -135.1          41.15          171.2          136.7          131.7
    0.6355              -42.15          10.04          63.93          35.44         -11.61          7.264         -135.1          41.14          171.1          136.7          131.7
    0.6779              -42.14          10.05           63.9          35.45         -11.61          7.258         -135.1          41.14          171.0          136.6          131.7
    0.7202              -42.13          10.06          63.87          35.46          -11.6          7.252         -135.1          41.14          170.9          136.6          131.7
    0.7626              -42.12          10.08          63.84          35.47          -11.6          7.246         -135.1          41.13          170.8          136.6          131.7
     0.805               -42.1          10.09          63.81          35.48         -11.59          7.239         -135.1          41.13          170.6          136.5          131.7
    0.8473              -42.09          10.11          63.78           35.5         -11.59          7.231         -135.1          41.12          170.5          136.5          131.7
    0.8897              -42.08          10.13          63.74          35.51         -11.58          7.223         -135.1          41.12          170.3          136.5          131.7
    0.9321              -42.06          10.15           63.7          35.53         -11.58          7.213         -135.1          41.11          170.2          136.4          131.7
    0.9744              -42.04          10.18          63.65          35.55         -11.57          7.203         -135.1          41.11          170.0          136.4          131.7
     1.017              -42.02           10.2           63.6          35.57         -11.56          7.191         -135.1           41.1          169.8          136.3          131.7
     1.059               -42.0          10.23          63.54          35.59         -11.55          7.178         -135.1          41.09          169.5          136.3          131.7
     1.102              -41.98          10.27          63.47          35.62         -11.54          7.164         -135.1          41.09          169.3          136.2          131.7
     1.144              -41.95           10.3           63.4          35.65         -11.53          7.147         -135.0          41.08          169.0          136.1          131.7
     1.186              -41.92          10.35          63.31          35.69         -11.51          7.129         -135.0          41.07          168.6          136.0          131.7
     1.229              -41.88           10.4          63.22          35.72          -11.5          7.108         -135.0          41.05          168.3          135.9          131.8
     1.271              -41.84          10.45          63.11          35.77         -11.48          7.084         -135.0          41.04          167.8          135.8          131.8
     1.313               -41.8          10.51          62.98          35.82         -11.46          7.057         -135.0          41.03          167.3          135.7          131.8
